<svg width="124" height="125" viewBox="0 0 124 125" fill="none" xmlns="http://www.w3.org/2000/svg">
<path d="M113.667 62.5C113.667 59.6465 111.354 57.3334 108.501 57.3334C105.647 57.3334 103.334 59.6465 103.334 62.5H113.667ZM62.0007 21.1667C64.8542 21.1667 67.1673 18.8535 67.1673 16C67.1673 13.1466 64.8542 10.8334 62.0007 10.8334V21.1667ZM100.751 103.833H23.2507V114.167H100.751V103.833ZM20.6673 101.25V23.75H10.334V101.25H20.6673ZM103.334 62.5V101.25H113.667V62.5H103.334ZM23.2507 21.1667H62.0007V10.8334H23.2507V21.1667ZM23.2507 103.833C21.8239 103.833 20.6673 102.677 20.6673 101.25H10.334C10.334 108.384 16.117 114.167 23.2507 114.167V103.833ZM100.751 114.167C107.884 114.167 113.667 108.384 113.667 101.25H103.334C103.334 102.677 102.177 103.833 100.751 103.833V114.167ZM20.6673 23.75C20.6673 22.3233 21.8239 21.1667 23.2507 21.1667V10.8334C16.117 10.8334 10.334 16.6163 10.334 23.75H20.6673Z" fill="#75748F"/>
<path d="M15.501 90.9167L43.1248 65.5949C45.0515 63.8287 47.9939 63.7796 49.9784 65.4807L82.6676 93.5001" stroke="#75748F" stroke-width="10.3333" stroke-linecap="round" stroke-linejoin="round"/>
<path d="M72.334 80.5833L84.6655 68.2518C86.4834 66.4339 89.3618 66.2293 91.4189 67.7721L108.501 80.5833" stroke="#75748F" stroke-width="10.3333" stroke-linecap="round" stroke-linejoin="round"/>
<path d="M77.501 31.5H108.501" stroke="#75748F" stroke-width="10.3333" stroke-linecap="round" stroke-linejoin="round"/>
<path d="M93.001 16V47" stroke="#75748F" stroke-width="10.3333" stroke-linecap="round" stroke-linejoin="round"/>
<rect x="72" y="7.5" width="48" height="48" rx="6.87667" fill="#75748F"/>
<line x1="86.0048" y1="24.2234" x2="105.574" y2="43.3633" stroke="white" stroke-width="6.87667" stroke-linecap="round"/>
<line x1="105.575" y1="23.7919" x2="86.0049" y2="42.9319" stroke="white" stroke-width="6.87667" stroke-linecap="round"/>
</svg>
