<svg width="42" height="48" viewBox="0 0 42 48" fill="none" xmlns="http://www.w3.org/2000/svg">
<g clip-path="url(#clip0_3091_2142)">
<path d="M20.7384 0.0131944C21.1252 -0.0271463 21.515 0.0465106 21.8639 0.225872C22.0309 0.312616 22.1825 0.428628 22.3122 0.5689L22.3416 0.599773C22.5615 0.853763 22.7253 1.1554 22.8214 1.48324C22.9175 1.81109 22.9436 2.15711 22.8978 2.49672C22.8651 3.03528 22.8978 3.58069 22.8978 4.12268C21.6243 3.98202 20.3401 3.98202 19.0665 4.12268C19.0665 3.52924 19.0665 2.9358 19.0665 2.34236C19.0556 2.03838 19.0876 1.73437 19.1614 1.44019C19.2562 1.0673 19.4562 0.733132 19.7353 0.481538C20.0144 0.229943 20.3595 0.0726681 20.7253 0.0303456L20.7384 0.0131944Z" fill="#FD9F05"/>
<path d="M19.0797 4.09182C20.3533 3.95116 21.6374 3.95116 22.911 4.09182C24.4895 4.34091 26.013 4.88339 27.4097 5.69376C31.434 8.1327 33.7799 11.7585 34.2805 16.6192C34.4964 18.7357 34.3721 20.8659 34.3525 22.9893C34.3165 27.3629 35.815 30.9887 38.9657 33.8633C39.4721 34.3313 39.8305 34.9501 39.993 35.6371C40.1555 36.3241 40.1144 37.0467 39.8752 37.7086C39.6283 38.3939 39.1842 38.9816 38.6044 39.3903C38.0246 39.7991 37.3379 40.0086 36.6394 39.9898C34.1496 39.9898 31.6598 39.9898 29.1732 39.9898C28.9933 39.9898 28.8166 39.9898 28.6366 40.0104H13.3574H5.43964C3.52891 40.0104 2.14822 38.7686 1.93228 36.7996C1.8681 36.2662 1.93273 35.7243 2.12023 35.2239C2.30773 34.7234 2.61211 34.2804 3.00543 33.9353C4.21941 32.8451 5.24441 31.543 6.03511 30.0865C7.03347 28.2454 7.58091 26.1734 7.62847 24.0561C7.65792 22.1008 7.62847 20.149 7.64483 18.1937C7.66446 14.17 8.99935 10.7123 11.7607 7.90287C13.6653 5.94448 16.0983 4.64753 18.7297 4.18787C18.8474 4.16729 18.962 4.13298 19.0797 4.09182Z" fill="#FDBF09"/>
<path d="M13.3574 40.021H28.6367C28.6328 42.0804 27.8715 44.0588 26.5113 45.5446C25.1511 47.0303 23.2968 47.9088 21.3344 47.9972C19.372 48.0856 17.4526 47.3771 15.9759 46.0191C14.4992 44.6612 13.5789 42.7585 13.4065 40.7071L13.3574 40.021Z" fill="#FD9F01"/>
<path d="M0.00408976 19.1201C0.246202 12.5306 2.51356 6.83628 6.93375 2.13679C7.10531 1.93826 7.31323 1.77797 7.54512 1.66545C7.77701 1.55294 8.02813 1.4905 8.28351 1.48187C8.5389 1.47324 8.79333 1.51859 9.03165 1.61521C9.26997 1.71183 9.48731 1.85776 9.67071 2.04429C9.85412 2.23082 9.99984 2.45414 10.0992 2.70096C10.1986 2.94777 10.2495 3.21302 10.249 3.48092C10.2486 3.74882 10.1967 4.01387 10.0965 4.2603C9.99625 4.50674 9.84975 4.7295 9.66569 4.91532C7.43794 7.26251 5.76799 10.1261 4.79072 13.2749C4.20714 15.1604 3.88754 17.1247 3.8419 19.1064C3.8525 19.4507 3.83169 19.7953 3.77974 20.1355C3.69029 20.6174 3.43462 21.0479 3.06157 21.3446C2.68853 21.6414 2.22427 21.7836 1.75752 21.7441C1.29077 21.7046 0.854264 21.4862 0.531405 21.1306C0.208547 20.7751 0.0219813 20.3072 0.00736163 19.8165C-0.00245375 19.5901 0.00408976 19.3534 0.00408976 19.1201Z" fill="#4DAE52"/>
<path d="M41.9863 18.9554C41.9863 19.2504 41.9863 19.5488 41.9863 19.8438C41.9687 20.3487 41.7667 20.8272 41.422 21.1803C41.0773 21.5334 40.6163 21.7341 40.1345 21.7408C39.8915 21.7518 39.6488 21.7126 39.4203 21.6253C39.1918 21.538 38.9819 21.4044 38.8027 21.2321C38.6234 21.0598 38.4783 20.8521 38.3756 20.621C38.2729 20.3898 38.2146 20.1397 38.2041 19.885C38.1768 17.9478 37.9275 16.021 37.4614 14.1461C36.5607 10.7117 34.8362 7.57635 32.4523 5.03872C32.0835 4.69203 31.8446 4.21897 31.7783 3.70434C31.7335 3.29895 31.8079 2.8889 31.9915 2.52905C32.1751 2.1692 32.4592 1.87673 32.8056 1.69076C33.1597 1.49732 33.5637 1.42856 33.958 1.49467C34.3522 1.56078 34.7156 1.75823 34.9945 2.0578C36.1677 3.26081 37.2102 4.59649 38.1027 6.04036C40.2651 9.46861 41.5702 13.4121 41.898 17.5078C41.9372 17.9915 41.9667 18.4717 42.0027 18.9554H41.9863Z" fill="#4DAE52"/>
</g>
<defs>
<clipPath id="clip0_3091_2142">
<rect width="42" height="48" fill="white"/>
</clipPath>
</defs>
</svg>
