<svg width="40" height="40" viewBox="0 0 40 40" fill="none" xmlns="http://www.w3.org/2000/svg">
<path d="M40 0H0V40H40V0Z" fill="#1B1A19"/>
<path d="M35.4847 20.0017C35.4847 21.2736 35.2937 22.505 34.9337 23.6741C34.9059 23.7695 34.8741 23.8668 34.8422 23.9622C34.5578 24.8248 34.1779 25.6525 33.7184 26.4362C31.1287 30.8555 25.9593 33.8708 20.0001 33.8708C19.8768 33.8708 19.7555 33.869 19.6322 33.8672L21.1697 32.6137C21.4322 32.3145 22.558 32.0888 22.9658 31.8979C23.5346 31.6336 24.0856 31.3382 24.6147 31.0152C27.0313 29.5414 30.6852 26.8069 29.985 23.8209C29.8398 23.2098 30.0586 22.5546 29.7961 21.9673C29.5475 21.4112 28.9746 21.0276 28.6464 20.5101C28.4018 20.121 28.4117 19.6126 28.3918 19.174C28.3202 17.6911 26.2437 17.6342 25.3446 16.779C24.9468 16.4009 24.7658 15.8779 24.3322 15.52C23.6818 14.9841 22.0369 15.1621 21.2731 15.3053C19.9285 15.5567 19.477 16.467 18.6615 17.3424C18.2776 17.7517 17.8898 18.1573 17.488 18.55C16.8893 19.1355 15.7894 17.0286 15.6859 16.8212C14.9261 15.2814 14.407 13.637 13.0028 12.4404C12.1415 11.7045 10.5801 10.7887 9.53787 11.7889C8.72635 12.5689 9.43047 13.5599 9.82032 14.3674C10.2659 15.2887 10.7094 16.2119 11.139 17.1405C11.5647 18.0655 12.0003 18.9519 12.1912 19.9467C12.3842 20.9524 12.5154 21.9654 12.7004 22.973L13.5617 27.6034L9.84816 30.4719C9.54981 30.2407 9.26339 29.9984 8.98692 29.747C6.22217 27.2418 4.51758 23.8007 4.51758 19.9999C4.51758 16.3532 6.08692 13.0387 8.65276 10.5629C11.4812 7.83571 15.5189 6.12891 20.0001 6.12891C23.5406 6.12891 26.8046 7.19153 29.4122 8.98459C29.5594 9.08553 29.7046 9.19014 29.8478 9.29475C33.2908 11.8421 35.4847 15.6907 35.4847 20.0017Z" fill="#F7DE3D"/>
</svg>
