<svg width="38" height="38" viewBox="0 0 38 38" fill="none" xmlns="http://www.w3.org/2000/svg">
<path d="M0 6.15238C0 2.75451 2.75451 0 6.15238 0H31.8476C35.2455 0 38 2.75451 38 6.15238V31.8476C38 35.2455 35.2455 38 31.8476 38H6.15238C2.75451 38 0 35.2455 0 31.8476V6.15238Z" fill="#FF4B4B"/>
<path fill-rule="evenodd" clip-rule="evenodd" d="M9.38422 11.0805C10.5722 9.86596 12.5198 9.84435 13.7343 11.0323L28.7203 25.6894C29.9349 26.8773 29.9565 28.8249 28.7685 30.0395C27.5806 31.2541 25.633 31.2757 24.4184 30.0878L9.43248 15.4307C8.2179 14.2427 8.1963 12.2951 9.38422 11.0805Z" fill="white"/>
<path fill-rule="evenodd" clip-rule="evenodd" d="M28.771 11.2476C29.9589 12.4622 29.9372 14.4098 28.7227 15.5977L13.7361 30.2549C12.5215 31.4428 10.5739 31.4212 9.38601 30.2066C8.1981 28.992 8.21973 27.0444 9.43433 25.8564L24.4209 11.1992C25.6355 10.0113 27.5831 10.033 28.771 11.2476Z" fill="white"/>
</svg>
