<svg width="38" height="30" viewBox="0 0 38 30" fill="none" xmlns="http://www.w3.org/2000/svg">
<path d="M36.6429 0H1.35714C0.606473 0 0 0.606473 0 1.35714V8.14286H38V1.35714C38 0.606473 37.3935 0 36.6429 0ZM0 28.5C0 29.2507 0.606473 29.8571 1.35714 29.8571H36.6429C37.3935 29.8571 38 29.2507 38 28.5V11.875H0V28.5ZM24.5558 20.6964C24.5558 20.5098 24.7085 20.3571 24.8951 20.3571H31.8929C32.0795 20.3571 32.2321 20.5098 32.2321 20.6964V23.75C32.2321 23.9366 32.0795 24.0893 31.8929 24.0893H24.8951C24.7085 24.0893 24.5558 23.9366 24.5558 23.75V20.6964Z" fill="#807A71"/>
</svg>
