<svg width="38" height="38" viewBox="0 0 38 38" fill="none" xmlns="http://www.w3.org/2000/svg">
<path d="M19 38C29.4934 38 38 29.4934 38 19C38 8.50659 29.4934 0 19 0C8.50659 0 0 8.50659 0 19C0 29.4934 8.50659 38 19 38Z" fill="#54CC00"/>
<path d="M17.9439 28.0656C17.3793 28.0656 16.8146 27.7951 16.4112 27.4345L10.5225 21.5746C9.55447 20.5829 9.4738 18.9602 10.2805 17.8784C11.1678 16.7965 12.6198 16.7064 13.5879 17.6079L17.7019 21.6648L24.6394 12.2889C25.4461 11.2071 26.8981 11.0268 27.9468 11.9283C28.9148 12.8298 29.0761 14.5427 28.2694 15.6246L19.7186 27.0739C19.3153 27.6148 18.7506 27.9754 18.1053 27.9754C18.1053 28.0656 18.0246 28.0656 17.9439 28.0656Z" fill="white"/>
</svg>
