<svg width="40" height="40" viewBox="0 0 40 40" fill="none" xmlns="http://www.w3.org/2000/svg">
<path opacity="0.996" fill-rule="evenodd" clip-rule="evenodd" d="M26.8369 3.08592C26.8239 5.35169 26.8369 7.61731 26.876 9.88279C27.1048 10.5544 27.5606 10.984 28.2432 11.1719C29.8575 11.2109 31.4721 11.224 33.0869 11.2109C33.0869 15.1432 33.0869 19.0755 33.0869 23.0078C24.5507 23.0858 16.0091 23.1118 7.46192 23.0859C7.48768 21.7961 7.46163 20.5201 7.38379 19.2578C7.37077 14.414 7.38379 9.57021 7.42285 4.72654C7.61806 3.71099 8.23004 3.15109 9.25879 3.04685C15.1313 2.98184 20.9907 2.99485 26.8369 3.08592Z" fill="#D7DEE2"/>
<path fill-rule="evenodd" clip-rule="evenodd" d="M26.8369 3.08594C27.1218 3.09544 27.3433 3.22564 27.501 3.47656C29.2678 5.89449 31.0647 8.29031 32.8916 10.6641C33.0018 10.832 33.067 11.0144 33.0869 11.2109C31.4722 11.224 29.8576 11.2109 28.2432 11.1719C27.5606 10.9841 27.1048 10.5544 26.876 9.88281C26.8369 7.61734 26.8239 5.35171 26.8369 3.08594Z" fill="#AFBDC7"/>
<path fill-rule="evenodd" clip-rule="evenodd" d="M12.7736 10.5859C15.6643 10.5729 18.555 10.5859 21.4454 10.625C21.9775 11.0414 21.9515 11.432 21.3673 11.7969C18.5288 11.849 15.6902 11.849 12.8517 11.7969C12.4947 11.5984 12.3775 11.2988 12.5001 10.8984C12.6076 10.8043 12.6987 10.7002 12.7736 10.5859Z" fill="#23B35D"/>
<path fill-rule="evenodd" clip-rule="evenodd" d="M12.7736 14.3359C17.7476 14.3229 22.7215 14.3359 27.6954 14.375C27.9311 14.4945 28.0352 14.6898 28.0079 14.9609C28.0208 15.2482 27.8905 15.4435 27.6173 15.5469C22.6954 15.599 17.7736 15.599 12.8517 15.5469C12.4947 15.3484 12.3775 15.0488 12.5001 14.6484C12.6076 14.5543 12.6987 14.4502 12.7736 14.3359Z" fill="#24B35D"/>
<path fill-rule="evenodd" clip-rule="evenodd" d="M12.7722 18.0859C17.7463 18.0729 22.7202 18.0859 27.6941 18.125C27.9297 18.2445 28.0338 18.4398 28.0066 18.7109C28.0194 18.9982 27.8892 19.1935 27.616 19.2969C22.6941 19.349 17.7722 19.349 12.8503 19.2969C12.3638 18.9249 12.3378 18.5213 12.7722 18.0859Z" fill="#25B35D"/>
<path opacity="0.995" fill-rule="evenodd" clip-rule="evenodd" d="M7.38406 19.2578C7.4619 20.5201 7.48795 21.7961 7.46218 23.0859C6.62274 23.1194 5.78941 23.0804 4.96218 22.9687C4.23787 22.6742 3.82121 22.1404 3.71218 21.3672C3.64701 20.5987 3.93347 19.9867 4.57156 19.5312C4.79526 19.4219 5.02964 19.3438 5.27468 19.2969C5.97733 19.2578 6.68045 19.2448 7.38406 19.2578Z" fill="#198043"/>
<path opacity="0.995" fill-rule="evenodd" clip-rule="evenodd" d="M3.71248 21.3672C3.82151 22.1404 4.23817 22.6742 4.96248 22.9688C5.78971 23.0804 6.62304 23.1195 7.46248 23.0859C16.0097 23.1118 24.5513 23.0858 33.0875 23.0078C33.609 22.9948 34.1298 23.0078 34.65 23.0469C35.4703 23.2422 35.9781 23.75 36.1734 24.5703C36.2255 28.138 36.2255 31.7057 36.1734 35.2734C36.0254 35.9684 35.6217 36.4502 34.9625 36.7188C25.044 36.8484 15.1221 36.8745 5.19686 36.7969C4.26962 36.5729 3.7618 35.987 3.67342 35.0391C3.60843 30.4687 3.62145 25.9113 3.71248 21.3672Z" fill="#1FB35B"/>
<path fill-rule="evenodd" clip-rule="evenodd" d="M12.6172 26.211C14.426 25.8783 15.7151 26.5293 16.4844 28.1641C16.5236 28.801 16.2242 29.0485 15.586 28.9063C15.3163 28.6146 15.0949 28.2891 14.9219 27.9297C14.7134 27.7216 14.466 27.5783 14.1797 27.5C13.05 27.1996 12.2037 27.5512 11.6406 28.5547C11.516 29.3823 11.49 30.2156 11.5625 31.0547C12.0572 32.22 12.9296 32.6497 14.1797 32.3438C14.4099 32.2808 14.6181 32.1767 14.8047 32.0313C15.046 31.6529 15.3063 31.2884 15.586 30.9375C16.2242 30.7953 16.5236 31.0428 16.4844 31.6797C15.7125 33.3276 14.4235 33.9656 12.6172 33.5938C11.3749 33.1809 10.6067 32.3345 10.3125 31.0547C10.2604 30.2474 10.2604 29.4401 10.3125 28.6328C10.4808 28.0227 10.7803 27.4888 11.211 27.0313C11.6487 26.6956 12.1174 26.4221 12.6172 26.211Z" fill="#D5DEE0"/>
<path fill-rule="evenodd" clip-rule="evenodd" d="M18.7902 26.211C19.6805 26.179 20.5659 26.2181 21.4464 26.3282C22.4931 26.9075 22.8056 27.7408 22.3839 28.8282C22.0752 28.9923 21.7758 28.9793 21.4855 28.7891C21.3925 28.4859 21.3404 28.1734 21.3292 27.8516C21.2641 27.6823 21.147 27.5651 20.9777 27.5C20.3266 27.4479 19.6756 27.4479 19.0245 27.5C18.9074 27.5651 18.8162 27.6563 18.7511 27.7735C18.6127 28.2397 18.7299 28.6173 19.1027 28.9063C20.0007 29.2404 20.8861 29.605 21.7589 30C22.8154 30.9707 22.8935 32.0254 21.9933 33.1641C21.785 33.3465 21.5506 33.4898 21.2902 33.5938C20.4308 33.6459 19.5714 33.6459 18.712 33.5938C17.6866 33.1243 17.2829 32.33 17.5011 31.211C17.837 30.8246 18.2016 30.7986 18.5949 31.1329C18.6878 31.4361 18.7399 31.7486 18.7511 32.0704C18.7902 32.2136 18.8813 32.3047 19.0245 32.3438C19.6756 32.3959 20.3266 32.3959 20.9777 32.3438C21.3413 32.1175 21.4585 31.792 21.3292 31.3672C21.2679 31.2277 21.1768 31.1105 21.0558 31.0157C20.1704 30.6511 19.2849 30.2865 18.3995 29.9219C17.5185 29.2514 17.2451 28.3791 17.5792 27.3047C17.852 26.7839 18.2557 26.4194 18.7902 26.211Z" fill="#D4DEE0"/>
<path fill-rule="evenodd" clip-rule="evenodd" d="M23.7098 26.2109C23.9778 26.1802 24.2252 26.2323 24.452 26.3672C25.1444 28.0015 25.8215 29.6421 26.4833 31.2891C27.1749 29.6574 27.852 28.0168 28.5145 26.3672C29.4386 26.0412 29.7511 26.3537 29.452 27.3047C28.6555 29.2516 27.8742 31.2047 27.1083 33.1641C26.9507 33.5878 26.6513 33.7311 26.2098 33.5937C26.029 33.5071 25.9118 33.3638 25.8583 33.1641C25.051 31.1328 24.2437 29.1016 23.4364 27.0703C23.3319 26.7156 23.423 26.4291 23.7098 26.2109Z" fill="#D5DEE1"/>
</svg>
