<svg width="124" height="124" viewBox="0 0 124 124" fill="none" xmlns="http://www.w3.org/2000/svg">
<g clip-path="url(#clip0_3357_1926)">
<path d="M7.78649 95.4193L44.8279 64.6561C32.9461 48.6233 36.3008 25.9936 52.3336 14.1025C68.3665 2.2114 91.0055 5.58477 102.887 21.6176C114.769 37.6505 111.414 60.2801 95.3815 72.1712C82.6002 81.6447 65.1243 81.6447 52.343 72.1712L21.5798 109.222C17.8504 113.476 3.52293 99.1487 7.78649 95.4193ZM94.7443 64.0189C106.279 52.4839 106.279 33.7898 94.7443 22.2548C83.2092 10.7198 64.5152 10.7198 52.9802 22.2548C41.4451 33.7898 41.4451 52.4839 52.9802 64.0189C64.5152 75.5352 83.1999 75.5352 94.7443 64.0189Z" fill="#367015"/>
<path d="M44.1722 43.1325C44.1722 51.8751 47.9485 59.7369 53.9549 65.1624C59.2118 69.9226 66.2115 72.8274 73.8578 72.8274C81.5041 72.8274 88.5038 69.9319 93.7606 65.1624C99.7764 59.7369 103.553 51.8751 103.553 43.1325C103.553 26.7342 90.2654 13.4375 73.8578 13.4375C57.4501 13.4375 44.1722 26.7342 44.1722 43.1325Z" fill="#DBDFF0"/>
</g>
<rect x="68" y="68" width="48" height="48" rx="6.87667" fill="#FF4B4B"/>
<line x1="82.0048" y1="84.7234" x2="101.574" y2="103.863" stroke="white" stroke-width="6.87667" stroke-linecap="round"/>
<line x1="101.575" y1="84.2919" x2="82.0049" y2="103.432" stroke="white" stroke-width="6.87667" stroke-linecap="round"/>
<defs>
<clipPath id="clip0_3357_1926">
<rect width="103" height="103" fill="white" transform="matrix(-1 0 0 1 110 7)"/>
</clipPath>
</defs>
</svg>
