<svg width="38" height="33" viewBox="0 0 38 33" fill="none" xmlns="http://www.w3.org/2000/svg">
<path d="M23.4468 5.30363H33.1334C33.8094 5.30356 34.4781 5.44439 35.0967 5.71715C35.7153 5.9899 36.2702 6.38859 36.7262 6.88778C37.1821 7.38696 37.529 7.9757 37.7447 8.61642C37.9604 9.25714 38.0402 9.93579 37.9791 10.6091L36.4295 27.6371C36.3197 28.8459 35.7619 29.97 34.8659 30.7887C33.9698 31.6073 32.8 32.0615 31.5862 32.062H6.4115C5.19774 32.0615 4.02799 31.6073 3.1319 30.7887C2.2358 29.97 1.67809 28.8459 1.56824 27.6371L0.0186901 10.6091C-0.0829014 9.48244 0.211279 8.35561 0.850631 7.42241L0.755761 5.30363C0.755761 4.01331 1.26834 2.77584 2.18073 1.86345C3.09313 0.951054 4.3306 0.438477 5.62092 0.438477H14.5533C15.8436 0.438752 17.0808 0.95151 17.993 1.86397L20.0072 3.87814C20.9194 4.7906 22.1566 5.30336 23.4468 5.30363ZM3.20293 5.59554C3.72513 5.40256 4.27976 5.30525 4.86682 5.30363H17.993L16.2732 3.5838C15.8171 3.12757 15.1984 2.87119 14.5533 2.87105H5.62092C4.98369 2.87094 4.37185 3.12087 3.91696 3.56712C3.46207 4.01337 3.20045 4.6203 3.18834 5.25741L3.20293 5.59554Z" fill="#00B4B9"/>
</svg>
