<svg width="25" height="28" viewBox="0 0 25 28" fill="none" xmlns="http://www.w3.org/2000/svg">
<path d="M7.05316 3.31177H10.5794C10.8535 3.31177 11.1164 3.20459 11.3103 3.0138C11.5041 2.82301 11.613 2.56424 11.613 2.29443C11.613 2.02461 11.5041 1.76585 11.3103 1.57506C11.1164 1.38427 10.8535 1.27708 10.5794 1.27708H9.68816V0.858249C9.68816 0.630627 9.59629 0.412328 9.43276 0.251375C9.26923 0.0904219 9.04744 0 8.81617 0C8.58491 0 8.36311 0.0904219 8.19958 0.251375C8.03605 0.412328 7.94418 0.630627 7.94418 0.858249V1.27708H7.05316C6.77903 1.27708 6.51612 1.38427 6.32228 1.57506C6.12843 1.76585 6.01953 2.02461 6.01953 2.29443C6.01953 2.56424 6.12843 2.82301 6.32228 3.0138C6.51612 3.20459 6.77903 3.31177 7.05316 3.31177ZM8.36617 0.858249C8.3687 0.742407 8.41724 0.632151 8.50138 0.551107C8.58551 0.470063 8.69855 0.424678 8.81627 0.424678C8.934 0.424678 9.04704 0.470063 9.13118 0.551107C9.21531 0.632151 9.26385 0.742407 9.26638 0.858249V1.27708H8.36617V0.858249Z" fill="#00B4B9"/>
<path d="M13.4727 9.9542H7.01811C6.95779 9.95599 6.90054 9.98083 6.85851 10.0235C6.81648 10.0661 6.79297 10.1232 6.79297 10.1826C6.79297 10.242 6.81648 10.299 6.85851 10.3417C6.90054 10.3843 6.95779 10.4091 7.01811 10.4109H13.4727C13.5038 10.4118 13.5347 10.4066 13.5637 10.3955C13.5926 10.3845 13.619 10.3678 13.6413 10.3465C13.6636 10.3252 13.6814 10.2997 13.6935 10.2716C13.7056 10.2434 13.7118 10.2131 13.7118 10.1826C13.7118 10.152 13.7056 10.1217 13.6935 10.0935C13.6814 10.0654 13.6636 10.0399 13.6413 10.0186C13.619 9.99731 13.5926 9.98064 13.5637 9.96958C13.5347 9.95851 13.5038 9.95329 13.4727 9.9542Z" fill="#00B4B9"/>
<path d="M13.4738 14.6875H7.01922C6.95766 14.6875 6.89862 14.7116 6.85509 14.7544C6.81156 14.7973 6.78711 14.8554 6.78711 14.916C6.78711 14.9765 6.81156 15.0347 6.85509 15.0775C6.89862 15.1203 6.95766 15.1444 7.01922 15.1444H13.4738C13.5354 15.1444 13.5944 15.1203 13.638 15.0775C13.6815 15.0347 13.7059 14.9765 13.7059 14.916C13.7059 14.8554 13.6815 14.7973 13.638 14.7544C13.5944 14.7116 13.5354 14.6875 13.4738 14.6875Z" fill="#00B4B9"/>
<path d="M13.4727 19.421H7.01811C6.95779 19.4228 6.90054 19.4476 6.85851 19.4903C6.81648 19.5329 6.79297 19.5899 6.79297 19.6494C6.79297 19.7088 6.81648 19.7658 6.85851 19.8085C6.90054 19.8511 6.95779 19.8759 7.01811 19.8777H13.4727C13.5038 19.8786 13.5347 19.8734 13.5637 19.8623C13.5926 19.8513 13.619 19.8346 13.6413 19.8133C13.6636 19.792 13.6814 19.7665 13.6935 19.7384C13.7056 19.7102 13.7118 19.6799 13.7118 19.6494C13.7118 19.6188 13.7056 19.5885 13.6935 19.5603C13.6814 19.5322 13.6636 19.5067 13.6413 19.4854C13.619 19.4641 13.5926 19.4474 13.5637 19.4364C13.5347 19.4253 13.5038 19.4201 13.4727 19.421Z" fill="#00B4B9"/>
<path d="M4.72272 9.16569L5.18569 8.80778C5.16437 8.77732 5.13586 8.75241 5.10261 8.7352C5.06935 8.71799 5.03234 8.709 4.99477 8.70898H2.46453C2.40297 8.70898 2.34394 8.73305 2.30041 8.7759C2.25688 8.81874 2.23242 8.87685 2.23242 8.93744V11.4278C2.23248 11.4882 2.25681 11.5461 2.30011 11.5888C2.34341 11.6316 2.40215 11.6558 2.46349 11.6561H4.99372C5.05525 11.656 5.11423 11.6319 5.15772 11.5891C5.2012 11.5462 5.22563 11.4882 5.22563 11.4276V9.99018L4.76161 10.3489V11.2H2.6956V9.16569H4.72272Z" fill="#00B4B9"/>
<path d="M6.20136 8.62835C6.18255 8.60475 6.15919 8.58504 6.13263 8.57033C6.10607 8.55563 6.07683 8.54622 6.04657 8.54264C6.01631 8.53907 5.98564 8.5414 5.9563 8.5495C5.92695 8.5576 5.89952 8.57132 5.87557 8.58986L3.74641 10.2364L3.48837 9.67224C3.46313 9.61703 3.41665 9.57394 3.35914 9.55246C3.30163 9.53098 3.2378 9.53287 3.18171 9.55771C3.12561 9.58254 3.08183 9.62829 3.06001 9.6849C3.03819 9.7415 3.0401 9.80432 3.06534 9.85953L3.44487 10.6892C3.45936 10.7208 3.48095 10.7487 3.508 10.771C3.53506 10.7932 3.56688 10.809 3.60108 10.8174C3.61922 10.8217 3.63782 10.8239 3.65649 10.824C3.70854 10.824 3.75907 10.8067 3.79994 10.775L6.16289 8.94818C6.21096 8.91071 6.242 8.85602 6.24921 8.79608C6.25642 8.73614 6.23922 8.67583 6.20136 8.62835Z" fill="#00B4B9"/>
<path d="M2.23047 16.246C2.23047 16.3066 2.25492 16.3647 2.29845 16.4076C2.34198 16.4504 2.40102 16.4745 2.46258 16.4745H4.99281C5.05434 16.4744 5.11332 16.4503 5.15681 16.4075C5.20029 16.3646 5.22472 16.3066 5.22472 16.246V14.808L4.7607 15.1667V16.0178H2.69469V13.9831H4.72181L5.18478 13.6252C5.16347 13.5947 5.13496 13.5698 5.1017 13.5526C5.06844 13.5354 5.03143 13.5264 4.99386 13.5264H2.46363C2.40207 13.5264 2.34303 13.5504 2.2995 13.5933C2.25597 13.6361 2.23151 13.6942 2.23151 13.7548L2.23047 16.246Z" fill="#00B4B9"/>
<path d="M6.20136 13.4448C6.18255 13.4212 6.15919 13.4014 6.13263 13.3867C6.10607 13.372 6.07683 13.3626 6.04657 13.359C6.01631 13.3555 5.98564 13.3578 5.9563 13.3659C5.92695 13.374 5.89952 13.3877 5.87557 13.4063L3.74641 15.0528L3.48837 14.4886C3.46313 14.4334 3.41665 14.3903 3.35914 14.3689C3.30163 14.3474 3.2378 14.3493 3.18171 14.3741C3.12561 14.3989 3.08183 14.4447 3.06001 14.5013C3.03819 14.5579 3.0401 14.6207 3.06534 14.6759L3.44487 15.5064C3.45936 15.538 3.48095 15.566 3.508 15.5882C3.53506 15.6104 3.56688 15.6263 3.60108 15.6346C3.61922 15.639 3.63782 15.6412 3.65649 15.6412C3.7085 15.6412 3.759 15.624 3.79994 15.5924L6.16289 13.7654C6.18681 13.7468 6.20679 13.7238 6.22167 13.6977C6.23655 13.6715 6.24605 13.6427 6.24963 13.6129C6.2532 13.5831 6.25078 13.553 6.2425 13.5241C6.23421 13.4953 6.22024 13.4683 6.20136 13.4448Z" fill="#00B4B9"/>
<path d="M2.23047 21.063C2.23047 21.1236 2.25492 21.1817 2.29845 21.2245C2.34198 21.2674 2.40102 21.2914 2.46258 21.2914H4.99281C5.05434 21.2914 5.11332 21.2673 5.15681 21.2245C5.20029 21.1816 5.22472 21.1235 5.22472 21.063V19.6249L4.7607 19.9837V20.8351H2.69469V18.8005H4.72181L5.18478 18.4425C5.16347 18.4121 5.13496 18.3872 5.1017 18.37C5.06844 18.3528 5.03143 18.3438 4.99386 18.3438H2.46363C2.40207 18.3438 2.34303 18.3678 2.2995 18.4107C2.25597 18.4535 2.23151 18.5116 2.23151 18.5722L2.23047 21.063Z" fill="#00B4B9"/>
<path d="M6.20136 18.2631C6.18255 18.2395 6.15919 18.2198 6.13263 18.2051C6.10607 18.1904 6.07683 18.181 6.04657 18.1774C6.01631 18.1738 5.98564 18.1762 5.9563 18.1843C5.92695 18.1924 5.89952 18.2061 5.87557 18.2246L3.74641 19.8711L3.48837 19.307C3.47587 19.2797 3.45803 19.255 3.43586 19.2345C3.41368 19.2139 3.38761 19.1979 3.35914 19.1872C3.33066 19.1766 3.30034 19.1716 3.26989 19.1725C3.23945 19.1734 3.20948 19.1802 3.18171 19.1925C3.15393 19.2048 3.12889 19.2223 3.10801 19.2442C3.08713 19.266 3.07082 19.2916 3.06001 19.3197C3.0492 19.3477 3.04411 19.3775 3.04503 19.4075C3.04594 19.4375 3.05284 19.467 3.06534 19.4943L3.44487 20.3248C3.45936 20.3564 3.48095 20.3843 3.508 20.4065C3.53506 20.4288 3.56688 20.4446 3.60108 20.453C3.61922 20.4573 3.63782 20.4595 3.65649 20.4596C3.70854 20.4596 3.75907 20.4423 3.79994 20.4106L6.16289 18.5838C6.18681 18.5652 6.20679 18.5422 6.22167 18.516C6.23655 18.4899 6.24605 18.4611 6.24963 18.4313C6.2532 18.4015 6.25078 18.3713 6.2425 18.3425C6.23422 18.3136 6.22024 18.2866 6.20136 18.2631Z" fill="#00B4B9"/>
<path d="M1.22329 24.6338V5.94884H16.4106V20.7661C16.8262 20.7662 17.2392 20.8314 17.6341 20.9593V3.54059C17.6341 3.35519 17.5969 3.1716 17.5249 3.00032C17.4528 2.82903 17.3471 2.6734 17.2139 2.54231C17.0807 2.41122 16.9225 2.30724 16.7485 2.23631C16.5745 2.16537 16.3879 2.12888 16.1996 2.12891H12.0255C12.0496 2.32971 12.0302 2.53327 11.9686 2.72615C11.9069 2.91904 11.8044 3.09687 11.6679 3.24792C11.5313 3.39897 11.3637 3.51981 11.1762 3.60247C10.9887 3.68513 10.7856 3.72774 10.5801 3.72747H7.05308C6.66718 3.72709 6.29719 3.57606 6.0243 3.3075C5.75141 3.03895 5.5979 2.67482 5.59746 2.295C5.59763 2.23949 5.60098 2.18404 5.6075 2.12891H1.43429C1.05389 2.12891 0.689074 2.27764 0.420093 2.54238C0.151112 2.80712 0 3.16619 0 3.54059V24.4677C0 24.8421 0.151112 25.2011 0.420093 25.4659C0.689074 25.7306 1.05389 25.8794 1.43429 25.8794H12.6903C12.5513 25.4783 12.4807 25.0575 12.4812 24.6338H1.22329Z" fill="#00B4B9"/>
<g clip-path="url(#clip0_1628_957)">
<path fill-rule="evenodd" clip-rule="evenodd" d="M24.3126 21.7971C24.3291 21.6042 24.3375 21.4089 24.3375 21.2117C24.3375 17.4629 21.2984 14.4238 17.5496 14.4238C13.8008 14.4238 10.7617 17.4629 10.7617 21.2117C10.7617 21.4089 10.7701 21.6042 10.7866 21.7971H11.854L12.648 20.3443C12.6816 20.2829 12.7308 20.2311 12.7908 20.194C12.8508 20.157 12.9196 20.136 12.9904 20.133C13.0612 20.1301 13.1315 20.1453 13.1945 20.1772C13.2575 20.2091 13.311 20.2565 13.3497 20.3149L13.965 21.2432L15.2962 16.0028C15.3193 15.9103 15.3751 15.8289 15.4536 15.7731C15.5321 15.7174 15.6283 15.6909 15.7248 15.6986C15.8213 15.7062 15.9119 15.7473 15.9804 15.8147C16.0489 15.8821 16.0908 15.9712 16.0986 16.0662L17.0214 26.7382L18.0808 22.0641C18.1006 21.9748 18.151 21.8949 18.2235 21.8377C18.2959 21.7806 18.3862 21.7497 18.479 21.7501H21.1498L22.0232 20.6423C22.0598 20.5959 22.1063 20.5579 22.1594 20.5311C22.2126 20.5042 22.271 20.4892 22.3307 20.487C22.3904 20.4848 22.4499 20.4955 22.5049 20.5184C22.5599 20.5413 22.6091 20.5758 22.6491 20.6195L23.7258 21.7971H24.3126ZM24.256 22.2665H23.696C23.6388 22.2664 23.5823 22.2546 23.53 22.2318C23.4778 22.2089 23.4309 22.1756 23.3925 22.1339L22.3499 20.9879L21.5051 22.0588C21.4673 22.1074 21.4185 22.1467 21.3627 22.1737C21.3068 22.2007 21.2454 22.2146 21.1832 22.2143H18.5327L17.3899 27.2604C17.369 27.3544 17.3145 27.4379 17.2364 27.4956C17.1582 27.5534 17.0616 27.5816 16.9641 27.5751C16.8666 27.5687 16.7747 27.528 16.7051 27.4604C16.6355 27.3928 16.5929 27.3029 16.5851 27.207L15.6592 16.501L14.3852 21.5061C14.3659 21.5819 14.3246 21.6505 14.2662 21.7036C14.2079 21.7566 14.1351 21.7918 14.0568 21.8047C13.9785 21.8177 13.898 21.8079 13.8253 21.7765C13.7525 21.7451 13.6906 21.6936 13.6472 21.6281L13.0093 20.6652L12.2492 22.0553C12.2144 22.1189 12.1628 22.172 12.0998 22.2092C12.0369 22.2464 11.9649 22.2662 11.8915 22.2665H10.8432C11.3499 25.5144 14.1595 27.9996 17.5496 27.9996C20.9397 27.9996 23.7493 25.5144 24.256 22.2665Z" fill="#252244"/>
</g>
<defs>
<clipPath id="clip0_1628_957">
<rect width="15.0862" height="14.8485" fill="white" transform="translate(9.91406 13.1514)"/>
</clipPath>
</defs>
</svg>
