<svg width="81" height="80" viewBox="0 0 81 80" fill="none" xmlns="http://www.w3.org/2000/svg">
<path opacity="0.995" fill-rule="evenodd" clip-rule="evenodd" d="M36.2142 2.4215C39.1752 2.02872 41.8314 2.73184 44.183 4.53087C37.5873 10.9362 35.4259 18.6185 37.6986 27.5777C40.6259 36.1821 46.5373 41.4165 55.433 43.2809C59.7092 43.9735 63.8498 43.4788 67.8548 41.7965C67.9069 47.057 67.9591 52.3173 68.0111 57.5778C68.5841 59.1403 69.1569 60.7028 69.7298 62.2653C72.1669 62.2542 73.2086 63.4521 72.8548 65.859C72.5684 66.5621 72.0736 67.057 71.3705 67.3434C49.0788 67.4476 26.7872 67.4476 4.49548 67.3434C3.40376 66.9048 2.88293 66.0976 2.93298 64.9215C2.88293 63.7454 3.40376 62.9382 4.49548 62.4996C5.05632 62.4673 5.6032 62.3892 6.1361 62.2653C6.70902 60.7028 7.28193 59.1403 7.85485 57.5778C7.90693 49.8173 7.95902 42.057 8.0111 34.2965C9.82749 21.8051 16.6244 13.3155 28.4017 8.82775C29.9364 5.35644 32.5406 3.22103 36.2142 2.4215Z" fill="#75748F"/>
<path opacity="0.981" fill-rule="evenodd" clip-rule="evenodd" d="M56.6698 2.4209C64.9692 1.76583 71.2973 4.94291 75.6542 11.9521C77.9071 16.1996 78.5321 20.6787 77.5292 25.3896C75.4092 33.1346 70.4351 37.9003 62.6073 39.6865C54.3493 40.8084 47.8649 37.9698 43.1542 31.1709C40.2882 26.3118 39.6112 21.1556 41.1229 15.7021C43.7464 8.26049 48.9287 3.83341 56.6698 2.4209ZM53.3885 13.8271C54.1618 13.7426 54.891 13.8728 55.576 14.2178C56.7501 15.418 57.9481 16.5898 59.1698 17.7334C60.3915 16.5898 61.5895 15.418 62.7635 14.2178C64.0264 13.5651 65.1462 13.7473 66.1229 14.7646C66.6437 15.7021 66.6437 16.6396 66.1229 17.5771C64.9228 18.7512 63.7509 19.9492 62.6073 21.1709C63.7509 22.3926 64.9228 23.5906 66.1229 24.7646C66.7756 26.0275 66.5934 27.1473 65.576 28.124C64.6385 28.6448 63.701 28.6448 62.7635 28.124C61.5895 26.9239 60.3915 25.752 59.1698 24.6084C57.9481 25.752 56.7501 26.9239 55.576 28.124C54.3132 28.7767 53.1934 28.5945 52.2167 27.5771C51.6959 26.6396 51.6959 25.7021 52.2167 24.7646C53.4168 23.5906 54.5887 22.3926 55.7323 21.1709C54.5887 19.9492 53.4168 18.7512 52.2167 17.5771C51.4048 15.9343 51.7954 14.6843 53.3885 13.8271Z" fill="#75748F"/>
<path opacity="0.981" fill-rule="evenodd" clip-rule="evenodd" d="M29.1737 68.6719C35.007 68.6719 40.8404 68.6719 46.6737 68.6719C46.4281 73.2662 44.0843 76.1569 39.6424 77.3437C34.2376 77.8698 30.774 75.5522 29.2518 70.3906C29.1739 69.82 29.1479 69.2472 29.1737 68.6719Z" fill="#75748F"/>
</svg>
