<svg width="125" height="124" viewBox="0 0 125 124" fill="none" xmlns="http://www.w3.org/2000/svg">
<path d="M110.406 35.2923C109.256 30.4532 105.868 26.6421 101.565 25.3487C93.767 22.9985 62.4961 22.9985 62.4961 22.9985C62.4961 22.9985 31.2254 22.9985 23.4267 25.3487C19.1243 26.6423 15.7358 30.4532 14.5857 35.2923C12.4961 44.0635 12.4961 62.3636 12.4961 62.3636C12.4961 62.3636 12.4961 80.6638 14.5857 89.435C15.7358 94.2741 19.1243 97.9264 23.4267 99.2198C31.2254 101.57 62.4961 101.57 62.4961 101.57C62.4961 101.57 93.7668 101.57 101.565 99.2198C105.868 97.9264 109.256 94.2741 110.406 89.435C112.496 80.6638 112.496 62.3636 112.496 62.3636C112.496 62.3636 112.496 44.0635 110.406 35.2923ZM52.2687 78.9788V45.7484L78.405 62.3641L52.2687 78.9788Z" fill="#F4D510"/>
<path d="M77.7069 58.2166L53.1584 45.141C49.4453 43.1871 44.6406 45.4791 44.6406 49.2364V75.35C44.6406 79.1073 49.4017 81.3993 53.1147 79.4079L77.6632 66.3699C81.2449 64.4913 81.2449 60.0577 77.7068 58.2165L77.7069 58.2166Z" fill="white"/>
<rect x="68.5" y="68" width="48" height="48" rx="6.87667" fill="#FF4B4B"/>
<line x1="82.5048" y1="84.7234" x2="102.074" y2="103.863" stroke="white" stroke-width="6.87667" stroke-linecap="round"/>
<line x1="102.075" y1="84.2919" x2="82.5049" y2="103.432" stroke="white" stroke-width="6.87667" stroke-linecap="round"/>
</svg>
