<svg width="18" height="19" viewBox="0 0 18 19" fill="none" xmlns="http://www.w3.org/2000/svg">
<path fill-rule="evenodd" clip-rule="evenodd" d="M2.00066 7C2.00066 5.14348 2.73816 3.36301 4.05092 2.05025C5.36367 0.737498 7.14415 0 9.00066 0C10.8572 0 12.6377 0.737498 13.9504 2.05025C15.2632 3.36301 16.0007 5.14348 16.0007 7V10.764L17.8227 14.408C17.9065 14.5757 17.9461 14.7621 17.9377 14.9494C17.9293 15.1368 17.8731 15.3188 17.7745 15.4783C17.6759 15.6379 17.5382 15.7695 17.3744 15.8608C17.2106 15.9521 17.0262 16 16.8387 16H12.8747C12.6522 16.8582 12.1511 17.6183 11.4499 18.1609C10.7488 18.7035 9.88726 18.9979 9.00066 18.9979C8.11407 18.9979 7.25257 18.7035 6.5514 18.1609C5.85023 17.6183 5.3491 16.8582 5.12666 16H1.16266C0.975141 16 0.790724 15.9521 0.62693 15.8608C0.463135 15.7695 0.325401 15.6379 0.226808 15.4783C0.128215 15.3188 0.0720377 15.1368 0.0636113 14.9494C0.0551849 14.7621 0.0947892 14.5757 0.178663 14.408L2.00066 10.764V7ZM7.26866 16C7.44421 16.304 7.69668 16.5565 8.00071 16.732C8.30473 16.9075 8.64961 16.9999 9.00066 16.9999C9.35172 16.9999 9.69659 16.9075 10.0006 16.732C10.3046 16.5565 10.5571 16.304 10.7327 16H7.26866ZM9.00066 2C7.67458 2 6.40281 2.52678 5.46513 3.46447C4.52745 4.40215 4.00066 5.67392 4.00066 7V10.764C4.00064 11.0743 3.9284 11.3804 3.78966 11.658L2.61966 14H15.3827L14.2127 11.658C14.0736 11.3805 14.001 11.0744 14.0007 10.764V7C14.0007 5.67392 13.4739 4.40215 12.5362 3.46447C11.5985 2.52678 10.3267 2 9.00066 2Z" fill="#252244"/>
</svg>
