<svg width="40" height="40" viewBox="0 0 40 40" fill="none" xmlns="http://www.w3.org/2000/svg">
<path d="M34.1312 5.875C32.281 4.01212 30.0803 2.5339 27.656 1.52558C25.2317 0.517253 22.6319 -0.00123589 20.0062 2.21211e-06C8.95625 2.21211e-06 0.03125 8.95 0.03125 20C0.03125 31.05 8.95625 40 20.0062 40C29.3312 40 37.1062 33.625 39.3312 25H34.1312C33.1014 27.9238 31.1896 30.4559 28.6596 32.2471C26.1296 34.0382 23.1061 35.0001 20.0062 35C11.7312 35 5.00625 28.275 5.00625 20C5.00625 11.725 11.7312 5 20.0062 5C24.1562 5 27.8562 6.725 30.5562 9.45L22.5062 17.5H40.0062V2.21211e-06L34.1312 5.875Z" fill="#00B4B9"/>
</svg>
