<svg width="80" height="80" viewBox="0 0 80 80" fill="none" xmlns="http://www.w3.org/2000/svg">
<path opacity="0.2" d="M40 80C62.0914 80 80 62.0914 80 40C80 17.9086 62.0914 0 40 0C17.9086 0 0 17.9086 0 40C0 62.0914 17.9086 80 40 80Z" fill="#F8DF3F"/>
<path d="M40 70C56.5685 70 70 56.5685 70 40C70 23.4315 56.5685 10 40 10C23.4315 10 10 23.4315 10 40C10 56.5685 23.4315 70 40 70Z" fill="#F8DF3F"/>
<path d="M35.5547 58.3387C35.5547 57.2661 35.9915 56.3414 36.8652 55.5648C37.7009 54.825 38.7456 54.4552 39.9991 54.4552C41.2527 54.4552 42.3163 54.825 43.19 55.5648C44.0257 56.3414 44.4436 57.2661 44.4436 58.3387C44.4436 59.4113 44.0257 60.3174 43.19 61.0571C42.3163 61.8338 41.2527 62.2222 39.9991 62.2222C38.7456 62.2222 37.7009 61.8338 36.8652 61.0571C35.9915 60.3174 35.5547 59.4113 35.5547 58.3387ZM36.0675 25.6618C36.0675 24.7002 36.4474 23.8865 37.2071 23.2208C37.9668 22.555 38.8975 22.2222 39.9991 22.2222C41.1007 22.2222 42.0314 22.555 42.7912 23.2208C43.5509 23.8865 43.9308 24.7002 43.9308 25.6618L43.9308 47.5204C43.9308 48.445 43.5509 49.2402 42.7912 49.9059C42.0314 50.5717 41.1007 50.9046 39.9991 50.9046C38.8975 50.9046 37.9668 50.5717 37.2071 49.9059C36.4474 49.2402 36.0675 48.445 36.0675 47.5204L36.0675 25.6618Z" fill="#252244"/>
</svg>
