<svg width="36" height="36" viewBox="0 0 36 36" fill="none" xmlns="http://www.w3.org/2000/svg">
<path d="M18 32C25.732 32 32 25.732 32 18C32 10.268 25.732 4 18 4C10.268 4 4 10.268 4 18C4 25.732 10.268 32 18 32Z" fill="#75748F"/>
<g clip-path="url(#clip0_1628_980)">
<path d="M25.8469 15.088C25.8258 15.1198 25.8145 15.1571 25.8145 15.1952C25.8145 15.2334 25.8258 15.2707 25.8469 15.3025C26.1551 16.183 26.314 17.1089 26.317 18.0418C26.3215 18.9613 26.1623 19.8742 25.8469 20.7379C25.8258 20.7696 25.8145 20.8068 25.8145 20.8448C25.8145 20.8829 25.8258 20.9201 25.8469 20.9517C25.8894 21.0374 25.9318 21.0806 26.0175 21.0806L28.8 22.0647L27.088 25.0179L24.862 23.0913C24.8035 23.0378 24.7275 23.0074 24.6482 23.0057C24.6151 23.0064 24.5826 23.0144 24.5529 23.0293C24.5233 23.0441 24.4973 23.0653 24.4769 23.0913C23.232 24.547 21.5669 25.4887 19.7261 25.8738C19.6412 25.8738 19.5979 25.9163 19.5555 26.002C19.5123 26.0452 19.5123 26.1301 19.5123 26.2165L20.0688 29.084H16.6873L17.2438 26.2165C17.2505 26.1424 17.2357 26.068 17.2013 26.002C17.1526 25.9491 17.0945 25.9057 17.03 25.8738C15.1853 25.5464 13.5169 24.5742 12.3224 23.1309C12.2753 23.0856 12.2156 23.0557 12.1511 23.0452C12.1111 23.0399 12.0704 23.045 12.0329 23.0601C11.9955 23.0751 11.9625 23.0994 11.9373 23.1309L9.71125 25.0567L8 22.1057L10.7825 21.1209C10.8468 21.0891 10.9046 21.0456 10.9531 20.9927C10.9743 20.9611 10.9855 20.9239 10.9855 20.8858C10.9855 20.8478 10.9743 20.8106 10.9531 20.7789C10.6187 19.9189 10.445 19.0048 10.4406 18.0821C10.4488 17.1459 10.6223 16.2186 10.9531 15.3428C10.9963 15.2578 10.9531 15.2146 10.9531 15.129C10.9107 15.044 10.8682 15.0008 10.7825 15.0008L8 13.9757L9.71125 11.0233L11.9373 12.9483C11.9957 13.002 12.0717 13.0325 12.1511 13.034C12.1843 13.0336 12.2169 13.0257 12.2466 13.0108C12.2763 12.996 12.3022 12.9746 12.3224 12.9483C13.5107 11.5061 15.1847 10.5474 17.03 10.2522C17.1157 10.2522 17.1589 10.2098 17.2013 10.1241C17.2438 10.0809 17.2438 9.99522 17.2438 9.90955L16.6873 6.99963H20.0724L19.5159 9.90955C19.5092 9.98374 19.5243 10.0583 19.5591 10.1241C19.6076 10.177 19.6654 10.2205 19.7298 10.2522C21.5945 10.5552 23.2842 11.5294 24.4805 12.9916C24.5279 13.0364 24.5875 13.0662 24.6519 13.0772C24.6919 13.0826 24.7326 13.0775 24.77 13.0625C24.8075 13.0475 24.8404 13.023 24.8657 12.9916L27.0917 11.0658L28.8037 14.0189L26.0212 15.003C25.9875 15.0029 25.9544 15.0105 25.9241 15.0252C25.8939 15.0399 25.8675 15.0614 25.8469 15.088ZM18.4 13.0772C17.4185 13.0775 16.4592 13.3688 15.6432 13.9143C14.8272 14.4597 14.1913 15.2349 13.8159 16.1417C13.4404 17.0485 13.3422 18.0463 13.5338 19.009C13.7253 19.9716 14.198 20.8558 14.892 21.5498C15.586 22.2438 16.4702 22.7165 17.4329 22.908C18.3955 23.0996 19.3933 23.0014 20.3001 22.626C21.2069 22.2505 21.9821 21.6146 22.5275 20.7986C23.073 19.9827 23.3643 19.0233 23.3646 18.0418C23.3638 16.7254 22.8405 15.463 21.9096 14.5322C20.9788 13.6013 19.7165 13.078 18.4 13.0772Z" fill="white"/>
</g>
<defs>
<clipPath id="clip0_1628_980">
<rect width="20.8" height="22.0836" fill="white" transform="matrix(1 0 0 -1 8 29.084)"/>
</clipPath>
</defs>
</svg>
