<svg width="34" height="16" viewBox="0 0 34 16" fill="none" xmlns="http://www.w3.org/2000/svg">
<rect width="20" height="2" rx="1" transform="matrix(-1 0 0 1 33 0)" fill="#252244"/>
<path d="M33 7C33.5523 7 34 7.44772 34 8C34 8.55228 33.5523 9 33 9V7ZM0.292892 8.70711C-0.0976295 8.31658 -0.0976295 7.68342 0.292892 7.29289L6.65685 0.928932C7.04738 0.538408 7.68054 0.538408 8.07107 0.928932C8.46159 1.31946 8.46159 1.95262 8.07107 2.34315L2.41421 8L8.07107 13.6569C8.46159 14.0474 8.46159 14.6805 8.07107 15.0711C7.68054 15.4616 7.04738 15.4616 6.65685 15.0711L0.292892 8.70711ZM33 9H1V7H33V9Z" fill="#252244"/>
<rect width="20" height="2" rx="1" transform="matrix(-1 0 0 1 33 14)" fill="#252244"/>
</svg>
