<svg width="16" height="32" viewBox="0 0 16 32" fill="none" xmlns="http://www.w3.org/2000/svg">
<g clip-path="url(#clip0_2583_416)">
<path fill-rule="evenodd" clip-rule="evenodd" d="M7.52879 5.52866C7.65381 5.40368 7.82334 5.33347 8.00012 5.33347C8.1769 5.33347 8.34644 5.40368 8.47145 5.52866L12.2428 9.29999C12.3642 9.42572 12.4314 9.59413 12.4299 9.76892C12.4284 9.94372 12.3583 10.1109 12.2347 10.2345C12.1111 10.3581 11.9439 10.4283 11.7691 10.4298C11.5943 10.4313 11.4259 10.3641 11.3001 10.2427L8.00012 6.94266L4.70012 10.2427C4.57439 10.3641 4.40598 10.4313 4.23119 10.4298C4.05639 10.4283 3.88918 10.3581 3.76557 10.2345C3.64197 10.1109 3.57186 9.94372 3.57034 9.76892C3.56882 9.59413 3.63601 9.42572 3.75745 9.29999L7.52879 5.52866Z" fill="#59C903"/>
</g>
<g clip-path="url(#clip1_2583_416)">
<path fill-rule="evenodd" clip-rule="evenodd" d="M7.52879 26.4713C7.65381 26.5963 7.82334 26.6665 8.00012 26.6665C8.1769 26.6665 8.34644 26.5963 8.47145 26.4713L12.2428 22.7C12.3642 22.5743 12.4314 22.4059 12.4299 22.2311C12.4284 22.0563 12.3583 21.8891 12.2347 21.7655C12.1111 21.6419 11.9439 21.5717 11.7691 21.5702C11.5943 21.5687 11.4259 21.6359 11.3001 21.7573L8.00012 25.0573L4.70012 21.7573C4.57439 21.6359 4.40598 21.5687 4.23119 21.5702C4.05639 21.5717 3.88918 21.6419 3.76557 21.7655C3.64197 21.8891 3.57186 22.0563 3.57034 22.2311C3.56882 22.4059 3.63601 22.5743 3.75745 22.7L7.52879 26.4713Z" fill="#59C903"/>
</g>
<defs>
<clipPath id="clip0_2583_416">
<rect width="16" height="16" fill="white"/>
</clipPath>
<clipPath id="clip1_2583_416">
<rect width="16" height="16" fill="white" transform="matrix(1 0 0 -1 0 32)"/>
</clipPath>
</defs>
</svg>
