<svg width="60" height="60" viewBox="0 0 60 60" fill="none" xmlns="http://www.w3.org/2000/svg">
<path opacity="0.937" fill-rule="evenodd" clip-rule="evenodd" d="M15.4102 11.1914C15.1034 11.4059 14.7908 11.5817 14.4727 11.7188C12.5764 9.80304 10.6624 7.90852 8.73047 6.03516C8.06394 6.62355 7.43895 7.24855 6.85547 7.91016C6.47823 8.14786 6.22433 8.46036 6.09375 8.84766C7.96875 10.7227 9.84375 12.5977 11.7188 14.4727C11.5817 14.7908 11.4059 15.1034 11.1914 15.4102C10.981 15.5617 10.7856 15.7375 10.6055 15.9375C10.5273 16.0157 10.4492 16.0157 10.3711 15.9375C8.00781 13.5742 5.64454 11.2109 3.28125 8.84766C3.20312 8.76953 3.20312 8.69141 3.28125 8.61328C5.07975 6.79523 6.89616 4.99835 8.73047 3.22266C11.1507 5.5843 13.5531 7.96712 15.9375 10.3711C16.0157 10.4492 16.0157 10.5273 15.9375 10.6055C15.7375 10.7856 15.5617 10.9809 15.4102 11.1914Z" fill="black"/>
<path opacity="0.912" fill-rule="evenodd" clip-rule="evenodd" d="M35.0977 5.5667C35.3632 5.52465 35.578 5.60277 35.7422 5.80107C36.2489 7.78892 36.7372 9.78111 37.207 11.7776C37.1944 11.888 37.1554 11.9856 37.0898 12.0706C36.56 12.1982 36.0327 12.3349 35.5078 12.4808C35.3971 12.4333 35.3189 12.3551 35.2734 12.2464C34.7643 10.1704 34.2369 8.10012 33.6914 6.03545C34.1728 5.87703 34.6416 5.72079 35.0977 5.5667Z" fill="black"/>
<path fill-rule="evenodd" clip-rule="evenodd" d="M15.4102 11.1914C15.7617 11.6211 16.1523 12.0117 16.582 12.3633C15.8466 13.2943 15.0262 14.1537 14.1211 14.9414C13.9978 14.9589 13.8806 14.9394 13.7695 14.8828C11.4412 12.5741 9.13652 10.2498 6.85547 7.91016C7.43895 7.24855 8.06394 6.62355 8.73047 6.03516C10.6624 7.90852 12.5764 9.80304 14.4727 11.7188C14.7908 11.5817 15.1034 11.4059 15.4102 11.1914Z" fill="#3E4F59"/>
<path opacity="0.959" fill-rule="evenodd" clip-rule="evenodd" d="M12.3633 16.5819C13.0205 16.1203 13.6064 15.5734 14.1211 14.9413C15.0263 14.1536 15.8466 13.2942 16.582 12.3632C17.8939 11.0316 19.2612 9.76211 20.6836 8.5546C23.2576 7.14509 25.7576 7.26228 28.1836 8.90616C30 10.7226 31.8164 12.539 33.6328 14.3554C33.711 14.4335 33.711 14.5116 33.6328 14.5898C27.264 20.9781 20.8773 27.3453 14.4727 33.6913C12.6383 31.9156 10.8219 30.1187 9.02344 28.3007C7.07031 25.5272 7.07031 22.7539 9.02344 19.9804C10.1604 18.863 11.2737 17.7301 12.3633 16.5819Z" fill="#010201"/>
<path opacity="0.993" fill-rule="evenodd" clip-rule="evenodd" d="M6.85547 7.91016C9.13652 10.2498 11.4412 12.5741 13.7695 14.8828C13.8806 14.9394 13.9978 14.9589 14.1211 14.9414C13.6064 15.5735 13.0205 16.1204 12.3633 16.582C12.0117 16.1523 11.6211 15.7617 11.1914 15.4102C11.4059 15.1034 11.5817 14.7908 11.7188 14.4727C9.84375 12.5977 7.96875 10.7227 6.09375 8.84766C6.22433 8.46036 6.47823 8.14786 6.85547 7.91016Z" fill="#333E44"/>
<path opacity="0.921" fill-rule="evenodd" clip-rule="evenodd" d="M44.2383 9.19922C44.7937 9.57783 45.3014 10.0271 45.7617 10.5469C44.2187 12.0899 42.6758 13.6328 41.1328 15.1758C40.7031 14.7461 40.2735 14.3164 39.8438 13.8867C39.7656 13.8086 39.7656 13.7305 39.8438 13.6523C41.3323 12.1834 42.7971 10.699 44.2383 9.19922Z" fill="black"/>
<path fill-rule="evenodd" clip-rule="evenodd" d="M29.7046 13.3006C24.668 18.4154 19.5899 23.4935 14.4702 28.535C13.2923 27.3768 12.179 26.1658 11.1304 24.9022C10.5796 23.7925 10.3648 22.6206 10.4859 21.3865C13.8964 17.8001 17.3729 14.2651 20.9156 10.7811C22.3636 9.51453 24.0043 9.20202 25.8374 9.84358C26.15 9.99983 26.4624 10.1561 26.7749 10.3123C27.7752 11.293 28.7518 12.289 29.7046 13.3006Z" fill="#90D8B8"/>
<path fill-rule="evenodd" clip-rule="evenodd" d="M21.7383 12.3633C22.2348 12.683 22.6841 13.0736 23.086 13.5352C23.1641 13.6133 23.1641 13.6914 23.086 13.7695C21.1524 15.7031 19.2188 17.6367 17.2852 19.5703C17.207 19.6485 17.129 19.6485 17.0508 19.5703C16.6797 19.1992 16.3087 18.8282 15.9375 18.457C15.8594 18.3789 15.8594 18.3008 15.9375 18.2227C17.8948 16.285 19.8284 14.3319 21.7383 12.3633Z" fill="#FCFEFD"/>
<path fill-rule="evenodd" clip-rule="evenodd" d="M29.7071 13.3008C30.1995 13.6542 30.5707 14.0839 30.8204 14.5898C25.3891 20.0407 19.9399 25.4704 14.4727 30.8789C13.1072 29.572 11.7595 28.2438 10.4298 26.8945C9.40044 25.2811 9.28325 23.6014 10.0782 21.8555C10.1894 21.6688 10.3261 21.5126 10.4884 21.3867C10.3673 22.6208 10.5821 23.7927 11.1329 24.9023C12.1815 26.166 13.2948 27.377 14.4727 28.5352C19.5924 23.4936 24.6705 18.4155 29.7071 13.3008Z" fill="#53B184"/>
<path opacity="0.919" fill-rule="evenodd" clip-rule="evenodd" d="M42.9492 17.6367C45.054 18.1629 47.1634 18.6902 49.2773 19.2188C49.3429 19.3037 49.3819 19.4013 49.3945 19.5117C49.2398 20.0523 49.1227 20.5991 49.043 21.1523C46.8477 20.6816 44.6602 20.1738 42.4805 19.6289C42.6184 18.9601 42.7746 18.296 42.9492 17.6367Z" fill="black"/>
<path opacity="0.954" fill-rule="evenodd" clip-rule="evenodd" d="M37.4394 24.7852C37.138 24.9562 36.8645 25.132 36.6191 25.3126C35.8733 24.5275 35.092 23.7854 34.2753 23.086C33.9628 23.0078 33.6504 23.0078 33.3378 23.086C32.7184 23.4303 32.3278 23.9382 32.166 24.6094C32.1709 24.8399 32.2295 25.0549 32.3417 25.254C33.0449 25.9571 33.748 26.6602 34.4511 27.3633C34.5293 27.4805 34.5293 27.5977 34.4511 27.7149C34.2019 27.904 34.0261 28.1384 33.9238 28.418C33.7524 28.5303 33.5962 28.6669 33.455 28.8282C33.3378 28.9064 33.2206 28.9064 33.1035 28.8282C32.3027 28.0274 31.5019 27.2266 30.7011 26.4258C29.9688 25.1474 30.0078 23.8975 30.8183 22.6758C32.1024 20.9973 33.6845 20.6261 35.5644 21.5626C36.3651 22.3633 37.166 23.1642 37.9667 23.9649C38.0449 24.0431 38.0449 24.1211 37.9667 24.1993C37.7667 24.3794 37.5909 24.5748 37.4394 24.7852Z" fill="#020200"/>
<path opacity="0.971" fill-rule="evenodd" clip-rule="evenodd" d="M47.5224 43.3009C46.6305 43.9973 45.8102 44.7785 45.0614 45.6446C44.3903 46.1982 43.8044 46.8233 43.3036 47.5196C42.1554 48.6092 41.0226 49.7225 39.9052 50.8595C37.1317 52.8126 34.3584 52.8126 31.5849 50.8595C30.1982 49.4728 28.8114 48.086 27.4247 46.6993C25.7837 47.3108 24.3775 46.9592 23.206 45.6446C22.2864 44.1029 22.3646 42.6185 23.4403 41.1915C24.2648 40.3474 25.1046 39.5271 25.9599 38.7305C27.2099 37.5587 28.4208 36.3478 29.5927 35.0977C31.3895 33.2227 33.2255 31.3868 35.1005 29.5899C36.3505 28.418 37.5614 27.2071 38.7333 25.9571C39.5298 25.1019 40.3502 24.262 41.1943 23.4376C42.5614 22.4129 44.0068 22.2957 45.5302 23.086C46.9731 24.2456 47.3637 25.691 46.7021 27.422C48.0887 28.8086 49.4755 30.1954 50.8622 31.5821C52.8154 34.3556 52.8154 37.1289 50.8622 39.9024C49.7253 41.0198 48.612 42.1527 47.5224 43.3009Z" fill="#010202"/>
<path opacity="0.993" fill-rule="evenodd" clip-rule="evenodd" d="M37.4414 24.7852C37.8711 25.1758 38.3007 25.5665 38.7305 25.9571C37.5586 27.2071 36.3477 28.418 35.0977 29.5899C34.7461 29.1601 34.3555 28.7696 33.9258 28.418C34.0281 28.1384 34.2039 27.904 34.4531 27.7149C34.5313 27.5977 34.5313 27.4805 34.4531 27.3633C33.75 26.6602 33.0469 25.9571 32.3438 25.2539C32.2315 25.0548 32.1729 24.8399 32.168 24.6094C32.3298 23.9382 32.7204 23.4303 33.3398 23.086C33.6524 23.0078 33.9648 23.0078 34.2773 23.086C35.094 23.7853 35.8753 24.5275 36.6211 25.3125C36.8665 25.1319 37.14 24.9562 37.4414 24.7852Z" fill="#FCE052"/>
<path fill-rule="evenodd" clip-rule="evenodd" d="M44.7066 25.0199C38.1831 31.5824 31.6597 38.1449 25.1363 44.7074C24.3985 44.191 24.2617 43.5269 24.7261 42.7152C30.7771 36.6643 36.8122 30.6291 42.8316 24.6098C43.564 24.3081 44.1891 24.4449 44.7066 25.0199Z" fill="#8FD7B7"/>
<path fill-rule="evenodd" clip-rule="evenodd" d="M44.707 25.0195C45.152 25.6137 45.1716 26.2386 44.7656 26.8945C38.8086 32.8515 32.8515 38.8086 26.8945 44.7656C26.4537 45.0183 25.9849 45.0964 25.4883 45C25.3193 44.9558 25.2021 44.8582 25.1367 44.707C31.6602 38.1445 38.1836 31.582 44.707 25.0195Z" fill="#53B184"/>
<path fill-rule="evenodd" clip-rule="evenodd" d="M49.2773 32.8711C49.4169 34.4217 49.0458 35.828 48.1641 37.0899C45.3744 39.9967 42.5423 42.8678 39.668 45.7032C37.4196 47.5648 35.0368 47.7601 32.5195 46.2891C31.7183 45.6245 30.9761 44.9018 30.293 44.1211C35.2693 39.0862 40.2694 34.0666 45.293 29.0625C45.3711 28.9844 45.4492 28.9844 45.5273 29.0625C46.8011 30.3167 48.051 31.5862 49.2773 32.8711Z" fill="#90D8B8"/>
<path opacity="0.956" fill-rule="evenodd" clip-rule="evenodd" d="M28.3 33.9259C28.0004 34.0482 27.7465 34.2435 27.5383 34.5119C26.7729 33.7074 25.9722 32.9457 25.1359 32.2267C24.2291 32.0749 23.5454 32.407 23.0851 33.2228C23.007 33.5744 23.007 33.9259 23.0851 34.2775C23.7845 35.0942 24.5267 35.8755 25.3117 36.6213C25.3899 36.6994 25.3899 36.7775 25.3117 36.8556C25.1116 37.0357 24.9359 37.2311 24.7843 37.4416C24.5739 37.5931 24.3785 37.7689 24.1984 37.9689C24.1202 38.0471 24.0422 38.0471 23.964 37.9689C23.1633 37.1682 22.3624 36.3673 21.5617 35.5666C20.5553 33.2354 21.1998 31.4971 23.4953 30.3517C24.5238 30.0475 25.5004 30.1647 26.425 30.7033C27.2257 31.504 28.0266 32.3049 28.8273 33.1056C28.9055 33.1838 28.9055 33.2618 28.8273 33.34C28.6273 33.5201 28.4515 33.7155 28.3 33.9259Z" fill="#010100"/>
<path opacity="0.997" fill-rule="evenodd" clip-rule="evenodd" d="M28.3008 33.9259C28.7305 34.3165 29.1601 34.7072 29.5899 35.0978C28.418 36.3478 27.2071 37.5587 25.9571 38.7306C25.5665 38.3008 25.1758 37.8712 24.7852 37.4415C24.9367 37.231 25.1125 37.0357 25.3125 36.8556C25.3907 36.7774 25.3907 36.6994 25.3125 36.6212C24.5275 35.8754 23.7853 35.0941 23.086 34.2774C23.0078 33.9259 23.0078 33.5743 23.086 33.2228C23.5463 32.4069 24.23 32.0748 25.1367 32.2267C25.973 32.9456 26.7737 33.7073 27.5391 34.5118C27.7473 34.2435 28.0013 34.0481 28.3008 33.9259Z" fill="#FADE51"/>
<path fill-rule="evenodd" clip-rule="evenodd" d="M49.2773 32.8711C50.2789 33.969 50.6111 35.2581 50.2734 36.7383C50.1071 37.5395 49.7556 38.2426 49.2188 38.8477C45.7617 42.3047 42.3047 45.7617 38.8477 49.2187C37.6121 50.2159 36.2059 50.5675 34.6289 50.2734C34.0493 50.0618 33.5025 49.7884 32.9883 49.4531C31.6796 48.1445 30.3711 46.836 29.0625 45.5273C29.3518 44.9821 29.762 44.5133 30.293 44.1211C30.9761 44.9018 31.7183 45.6245 32.5195 46.2891C35.0368 47.7601 37.4196 47.5648 39.668 45.7031C42.5423 42.8678 45.3744 39.9967 48.1641 37.0898C49.0458 35.828 49.4169 34.4217 49.2773 32.8711Z" fill="#53B083"/>
<path fill-rule="evenodd" clip-rule="evenodd" d="M47.5195 43.3008C47.8711 43.7305 48.2617 44.1211 48.6914 44.4727C48.4768 44.7795 48.3011 45.092 48.1641 45.4102C50.0797 47.3064 51.9743 49.2204 53.8477 51.1523C53.3374 51.7407 52.7905 52.2877 52.207 52.793C49.7851 50.4492 47.4023 48.0664 45.0586 45.6445C45.8073 44.7784 46.6276 43.9972 47.5195 43.3008Z" fill="#3E4F59"/>
<path opacity="0.936" fill-rule="evenodd" clip-rule="evenodd" d="M44.4727 48.6914C44.7795 48.4769 45.092 48.3011 45.4102 48.1641C47.2852 50.0391 49.1602 51.9141 51.0352 53.7891C51.5017 53.5789 51.8923 53.2469 52.2071 52.793C52.7905 52.2877 53.3375 51.7408 53.8477 51.1524C51.9743 49.2204 50.0798 47.3064 48.1641 45.4102C48.3011 45.092 48.4769 44.7795 48.6914 44.4727C48.9019 44.3212 49.0973 44.1454 49.2774 43.9453C49.3555 43.8672 49.4336 43.8672 49.5117 43.9453C51.8751 46.3087 54.2383 48.6719 56.6016 51.0352C56.6798 51.1133 56.6798 51.1914 56.6016 51.2696C54.8031 53.0876 52.9867 54.8844 51.1524 56.6602C48.7321 54.2985 46.3298 51.9157 43.9453 49.5117C43.8672 49.4336 43.8672 49.3555 43.9453 49.2774C44.1454 49.0973 44.3212 48.9019 44.4727 48.6914Z" fill="black"/>
<path opacity="0.996" fill-rule="evenodd" clip-rule="evenodd" d="M45.0586 45.6445C47.4023 48.0664 49.7851 50.4492 52.207 52.793C51.8923 53.2468 51.5017 53.5788 51.0352 53.7891C49.1602 51.9141 47.2852 50.0391 45.4102 48.1641C45.092 48.3011 44.7795 48.4768 44.4727 48.6914C44.1211 48.2617 43.7305 47.8711 43.3008 47.5195C43.8015 46.8232 44.3875 46.1981 45.0586 45.6445Z" fill="#333E44"/>
</svg>
