<svg width="28" height="22" viewBox="0 0 28 22" fill="none" xmlns="http://www.w3.org/2000/svg">
<path d="M27.4149 3.44226C27.0929 2.08731 26.1441 1.02019 24.9394 0.658052C22.7558 0 14 0 14 0C14 0 5.2442 0 3.06058 0.658052C1.8559 1.02025 0.907111 2.08731 0.585087 3.44226C0 5.89818 0 11.0222 0 11.0222C0 11.0222 0 16.1463 0.585087 18.6022C0.907111 19.9572 1.8559 20.9798 3.06058 21.3419C5.2442 22 14 22 14 22C14 22 22.7558 22 24.9394 21.3419C26.1441 20.9798 27.0929 19.9572 27.4149 18.6022C28 16.1463 28 11.0222 28 11.0222C28 11.0222 28 5.89818 27.4149 3.44226ZM11.1363 15.6745V6.36997L18.4545 11.0223L11.1363 15.6745Z" fill="#F4D510"/>
<path d="M18.2586 9.86073L11.385 6.19957C10.3453 5.65249 9 6.29424 9 7.3463V14.6581C9 15.7102 10.3331 16.3519 11.3727 15.7943L18.2463 12.1437C19.2492 11.6176 19.2492 10.3763 18.2585 9.86071L18.2586 9.86073Z" fill="white"/>
</svg>
