<svg width="38" height="34" viewBox="0 0 38 34" fill="none" xmlns="http://www.w3.org/2000/svg">
<g clip-path="url(#clip0_2521_2713)">
<path d="M17.6641 0.782194L0.206609 31.4375C0.0713215 31.675 6.95157e-05 31.9443 5.08604e-08 32.2186C-6.9414e-05 32.4929 0.0710183 32.7623 0.206186 32.9999C0.341353 33.2375 0.535834 33.4349 0.770055 33.5722C1.00428 33.7095 1.27 33.782 1.54058 33.7823H36.4594C36.7299 33.782 36.9957 33.7095 37.2299 33.5722C37.4642 33.4349 37.6586 33.2375 37.7938 32.9999C37.9289 32.7623 38.0001 32.4929 38 32.2186C37.9999 31.9443 37.9287 31.675 37.7934 31.4375L20.3359 0.782194C20.2006 0.544386 20.0059 0.346938 19.7714 0.209622C19.5369 0.0723057 19.2708 0 19 0C18.7292 0 18.4631 0.0723057 18.2286 0.209622C17.9941 0.346938 17.7994 0.544386 17.6641 0.782194Z" fill="#F8DF3F"/>
<path d="M17.8165 26.0482C17.8141 25.8804 17.8473 25.7139 17.9138 25.5602C17.9803 25.4064 18.0786 25.269 18.202 25.1571C18.4762 24.9201 18.8247 24.7899 19.185 24.7899C19.5453 24.7899 19.8938 24.9201 20.168 25.1571C20.2914 25.269 20.3897 25.4064 20.4562 25.5602C20.5227 25.7139 20.5558 25.8804 20.5534 26.0482C20.5553 26.2154 20.5219 26.381 20.4554 26.534C20.3889 26.687 20.2909 26.8239 20.168 26.9353C19.8949 27.1746 19.5459 27.3062 19.185 27.3062C18.824 27.3062 18.4751 27.1746 18.202 26.9353C18.0791 26.8239 17.9811 26.687 17.9146 26.534C17.8481 26.381 17.8147 26.2154 17.8165 26.0482ZM17.9784 15.4572C17.9776 15.3085 18.0089 15.1615 18.0702 15.0265C18.1314 14.8914 18.2212 14.7716 18.3331 14.6756C18.5747 14.4659 18.8823 14.3506 19.2004 14.3506C19.5185 14.3506 19.8261 14.4659 20.0677 14.6756C20.1796 14.7716 20.2694 14.8914 20.3307 15.0265C20.3919 15.1615 20.4232 15.3085 20.4223 15.4572V22.5426C20.4248 22.6915 20.3943 22.8391 20.3329 22.9744C20.2715 23.1097 20.1809 23.2293 20.0677 23.3243C19.8261 23.534 19.5185 23.6491 19.2004 23.6491C18.8823 23.6491 18.5747 23.534 18.3331 23.3243C18.2199 23.2293 18.1293 23.1097 18.0679 22.9744C18.0065 22.8391 17.9759 22.6915 17.9784 22.5426V15.4572Z" fill="black"/>
</g>
<defs>
<clipPath id="clip0_2521_2713">
<rect width="38" height="33.7823" fill="white"/>
</clipPath>
</defs>
</svg>
